<?xml version="1.0" standalone="no"?><!DOCTYPE svg PUBLIC "-//W3C//DTD SVG 1.1//EN" "http://www.w3.org/Graphics/SVG/1.1/DTD/svg11.dtd"><svg t="1594705266854" class="icon" viewBox="0 0 1241 1024" version="1.1" xmlns="http://www.w3.org/2000/svg" p-id="6164" xmlns:xlink="http://www.w3.org/1999/xlink" width="242.3828125" height="200"><defs><style type="text/css"></style></defs><path d="M632.371131 1023.95718c-9.091499 0-18.182997-3.506278-25.195552-10.518833-13.342472-14.02511-13.342472-36.428052 0.682638-49.739496l468.103576-454.761104c53.95944-47.660552 84.771243-114.931436 84.771243-185.708597 0-135.938073-110.711491-246.680593-246.649564-246.680594s-246.680593 110.74252-246.680594 246.680594c0 19.610331-15.390387 35.062776-35.000718 35.062776-19.64136 0-35.062776-15.452445-35.062776-35.062776 0-135.938073-110.711491-246.680593-246.649564-246.680594-135.907044 0-246.649564 110.74252-246.649565 246.680594 0 19.610331-15.421416 35.062776-35.031747 35.062776a34.690428 34.690428 0 0 1-35.031747-35.062776C33.976761 148.753052 176.213722 6.516091 350.68982 6.516091c122.62663 0 229.149205 70.094523 281.71234 171.683487A316.123508 316.123508 0 0 1 914.083472 6.516091c174.476098 0 316.744088 142.26799 316.744087 316.744088 0 91.10116-39.251692 177.299737-107.236243 237.558066l-466.676242 453.333769a33.263094 33.263094 0 0 1-24.512914 9.836195" p-id="6165"></path><path d="M180.557783 506.05205c-61.747721 0-112.01471 52.997541-112.01471 118.220511 0 33.635442 13.590704 65.874579 38.041561 88.091346l219.902561 224.929261 229.397438-235.696326c17.686533-20.044738 27.864047-48.715539 27.864047-78.068977 0-65.160911-50.266989-118.220511-112.01471-118.220511-61.747721 0-112.01471 53.059599-112.01471 118.220511 0 20.044738-14.893923 35.807472-33.914703 35.807472-18.989751 0-33.945732-15.762735-33.945732-35.807472 0-64.478273-50.23596-117.475815-111.301042-117.475815M325.804557 1023.95718c-8.812238 0-16.972866-3.568336-23.768218-10.022369l-242.336533-248.573362C22.433971 730.267643 0 678.697436 0 624.241532 0 519.673783 80.768501 434.406076 179.875145 434.406076c59.730835 0 113.348957 30.811802 145.929412 78.813674 32.580456-48.001871 85.515939-78.813674 145.929413-78.813674C570.840613 434.406076 651.609115 519.642754 651.609115 624.241532c0 47.288204-16.972866 93.118045-46.853799 127.529212l-255.182541 261.4504A31.029005 31.029005 0 0 1 325.804557 1023.95718" p-id="6166"></path></svg>