<?xml version="1.0" standalone="no"?><!DOCTYPE svg PUBLIC "-//W3C//DTD SVG 1.1//EN" "http://www.w3.org/Graphics/SVG/1.1/DTD/svg11.dtd"><svg t="1597717193937" class="icon" viewBox="0 0 1024 1024" version="1.1" xmlns="http://www.w3.org/2000/svg" p-id="6872" xmlns:xlink="http://www.w3.org/1999/xlink" width="200" height="200"><defs><style type="text/css"></style></defs><path d="M512 512m-478.378667 0a478.378667 478.378667 0 1 0 956.757334 0 478.378667 478.378667 0 1 0-956.757334 0Z" fill="#040000" p-id="6873"></path><path d="M512 512m-436.565333 0a436.565333 436.565333 0 1 0 873.130666 0 436.565333 436.565333 0 1 0-873.130666 0Z" fill="#F3C81E" p-id="6874"></path><path d="M112.298667 599.722667c0-254.634667 206.506667-461.141333 461.141333-461.141334 98.816 0 190.293333 31.232 265.216 83.968C758.784 132.437333 642.048 75.434667 512 75.434667 270.848 75.434667 75.434667 270.848 75.434667 512c0 75.605333 19.285333 146.602667 53.077333 208.554667-10.410667-38.4-16.213333-79.018667-16.213333-120.832z" fill="#F6D85E" p-id="6875"></path><path d="M340.48 390.314667m-64 0a64 64 0 1 0 128 0 64 64 0 1 0-128 0Z" fill="#040000" p-id="6876"></path><path d="M683.52 390.314667m-64 0a64 64 0 1 0 128 0 64 64 0 1 0-128 0Z" fill="#040000" p-id="6877"></path><path d="M532.821333 854.186667c-111.445333 0-208.042667-62.976-256.341333-155.306667l41.642667-19.285333c40.96 76.8 121.685333 129.024 214.698666 129.024 89.6 0 167.594667-48.469333 209.749334-120.490667l39.082666 23.722667c-50.176 85.162667-142.848 142.336-248.832 142.336z" fill="#040000" p-id="6878"></path></svg>